<svg width="109" height="38" viewBox="0 0 109 38" fill="none" xmlns="http://www.w3.org/2000/svg">
<path d="M0.799988 23.2467C0.799988 26.9667 3.67999 29.4867 7.55999 29.4867C11.8 29.4867 13.56 26.4867 13.56 26.4867H13.64V26.8467C13.64 27.7667 14.36 29.0067 16.36 29.0067H22.36V23.2067H20.84C20.28 23.2067 19.96 22.8867 19.96 22.3267V16.3267C19.96 11.4467 17.6 7.92674 10.16 7.92674C8.03999 7.92674 2.19999 8.20674 2.19999 12.7667V15.0467H8.59999V14.1267C8.59999 13.3267 9.51999 13.1267 10.4 13.1267C12.12 13.1267 13.04 13.8467 13.04 15.8067V16.1667H12.76C9.59999 16.1667 0.799988 16.7267 0.799988 23.2467ZM7.63999 22.5267C7.63999 20.8067 10.16 20.1267 12.36 20.1267H13.12V20.6867C13.12 22.3667 11.56 24.3267 9.59999 24.3267C8.31999 24.3267 7.63999 23.4467 7.63999 22.5267Z" fill="#F43737"/>
<path d="M24.7734 26.0867C24.7734 28.1267 25.6534 29.0067 27.6934 29.0067H59.5V23.2067H32.5734C32.0134 23.2067 31.6934 22.8867 31.6934 22.3267V3.32674C31.6934 1.28674 30.8134 0.406738 28.7734 0.406738L20 0.399902V6.1999L23.8934 6.20674C24.4534 6.20674 24.7734 6.52674 24.7734 7.08674V26.0867Z" fill="#F43737"/>
<path d="M35.5 20.1267H59.34V14.9267H35.5V20.1267Z" fill="#F43737"/>
<path d="M66.1312 30.1667L64.1312 35.5667C66.1312 36.6067 69.1712 37.4067 71.9313 37.4067C77.5713 37.4067 83.5713 34.6467 83.5713 27.1267V14.9667C83.5713 14.4867 83.9312 14.2067 84.4512 14.2067H85.8913V8.40674H79.6513C78.0913 8.40674 77.4512 9.48674 77.4512 10.0467V10.3267H77.3713C77.3713 10.3267 75.6113 7.92674 71.4112 7.92674C65.1712 7.92674 62.1713 12.8067 62.1713 18.0467C62.1713 23.3267 65.2513 28.4067 71.4512 28.4067C73.8512 28.4067 75.4113 27.7667 76.6113 26.4467H76.6913C76.6913 26.4467 76.6513 26.9667 76.6513 27.2067V27.5267C76.6513 30.5667 74.3713 31.4867 71.8913 31.4867C68.6513 31.4867 66.1312 30.1667 66.1312 30.1667ZM73.0912 22.6467C70.3312 22.6467 69.1312 20.3667 69.1312 17.8067C69.1312 15.4467 70.3712 13.6867 72.8112 13.6867C74.8913 13.6867 76.8112 14.4867 76.8112 18.1267C76.8112 21.7267 74.8913 22.6467 73.0912 22.6467Z" fill="#F43737"/>
<path d="M87.44 23.2467C87.44 26.9667 90.32 29.4867 94.2 29.4867C98.44 29.4867 100.2 26.4867 100.2 26.4867H100.28V26.8467C100.28 27.7667 101 29.0067 103 29.0067H109V23.2067H107.48C106.92 23.2067 106.6 22.8867 106.6 22.3267V16.3267C106.6 11.4467 104.24 7.92674 96.8 7.92674C94.68 7.92674 88.84 8.20674 88.84 12.7667V15.0467H95.24V14.1267C95.24 13.3267 96.16 13.1267 97.04 13.1267C98.76 13.1267 99.68 13.8467 99.68 15.8067V16.1667H99.4C96.24 16.1667 87.44 16.7267 87.44 23.2467ZM94.28 22.5267C94.28 20.8067 96.8 20.1267 99 20.1267H99.76V20.6867C99.76 22.3667 98.2 24.3267 96.24 24.3267C94.96 24.3267 94.28 23.4467 94.28 22.5267Z" fill="#F43737"/>
</svg>
