<svg width="546" height="316" viewBox="0 0 546 316" fill="none" xmlns="http://www.w3.org/2000/svg">
<path fill-rule="evenodd" clip-rule="evenodd" d="M199.53 0.896437C199.177 1.46844 199.04 4.60743 199.227 7.87244C199.413 11.1374 199.211 13.9284 198.777 14.0734C198.343 14.2194 195.051 11.4354 191.461 7.88744C184.821 1.32444 182.608 0.14344 180.394 1.98144C179.712 2.54744 178.684 2.72044 178.11 2.36544C177.395 1.92344 177.066 10.0854 177.066 28.2794V54.8384H181.546H186.026L186.296 33.7024L186.566 12.5664L197.316 23.4354L208.066 34.3044V17.2354V0.166438L204.119 0.0114389C201.949 -0.0735611 199.883 0.324437 199.53 0.896437ZM25.75 1.48744C25.394 1.84444 23.856 2.18144 22.334 2.23744L19.566 2.33844V22.5894C19.566 33.7274 19.358 42.8394 19.104 42.8394C18.85 42.8384 16.818 41.0484 14.588 38.8604C10.648 34.9924 10.43 34.9144 6.775 36.0354C4.708 36.6704 3.14 37.4714 3.291 37.8164C3.442 38.1614 6.993 41.6824 11.182 45.6414C18.376 52.4394 19.055 52.8384 23.432 52.8384H28.066V32.6264V12.4134L32.85 17.1264C37.856 22.0564 39.369 22.5694 43.439 20.7144C45.875 19.6044 45.786 19.4704 36.362 10.2144C31.112 5.05744 26.723 0.838439 26.608 0.838439C26.493 0.838439 26.107 1.13044 25.75 1.48744ZM77.816 1.65244L75.066 1.97144V27.9044V53.8384H79.066H83.066V32.8384C83.066 21.2884 83.249 11.8384 83.472 11.8384C83.696 11.8384 86.15 14.0274 88.926 16.7034C93.838 21.4384 94.069 21.5394 97.52 20.4594C99.47 19.8484 101.066 19.0534 101.066 18.6924C101.066 18.3324 98.137 15.6604 94.558 12.7564C90.978 9.85244 87.184 6.00844 86.125 4.21444C84.948 2.21944 83.495 1.02644 82.383 1.14244C81.384 1.24744 79.328 1.47644 77.816 1.65244ZM245.027 4.93244C242.201 11.7554 244.816 23.4614 251.026 31.7844C253.248 34.7624 255.066 37.7094 255.066 38.3324C255.066 38.9544 253.745 40.7294 252.131 42.2764C248.486 45.7684 244.829 45.2144 242.559 40.8244C241.709 39.1814 240.643 37.8384 240.19 37.8384C238.014 37.8384 233.066 40.1654 233.07 41.1864C233.076 43.2134 236.887 48.6754 239.48 50.3744C246.453 54.9434 257.303 52.2154 261.003 44.9624C262.138 42.7384 263.063 40.3374 263.06 39.6284C263.045 35.9834 260.6 30.6324 256.087 24.3654C250.775 16.9894 249.929 13.4274 252.269 8.29244C253.343 5.93544 253.209 5.45144 251.019 3.76744C247.611 1.14944 246.505 1.36444 245.027 4.93244ZM491.323 3.33744C480.348 9.10244 479.17 19.4544 488.55 27.6904C492.5 31.1584 492.841 31.2544 496.393 29.9044L498.849 28.9704L494.458 24.3864C488.651 18.3264 488.603 15.3814 494.212 9.29544C496.493 6.82144 498.18 4.64244 497.962 4.45344C495.997 2.74644 493.308 2.29444 491.323 3.33744ZM524.386 8.08844C517.004 15.7814 514.834 21.4614 514.909 32.8974C514.946 38.5104 515.525 42.0534 516.901 45.0754C520.079 52.0594 521.064 52.8984 525.272 52.2034L528.979 51.5904L526.661 48.4644C523.567 44.2934 522.063 39.5214 522.081 33.9394C522.104 27.1644 523.115 26.1674 526.808 29.2754C530.498 32.3804 531.221 32.4304 533.647 29.7484C535.517 27.6834 535.504 27.6324 532.57 25.4984C530.938 24.3104 528.503 22.3944 527.159 21.2394L524.716 19.1404L526.903 15.6024C530.86 9.19844 531.422 9.12044 537.189 14.1644L542.364 18.6914L544.123 16.5204C545.09 15.3254 545.708 14.0684 545.496 13.7254C544.929 12.8074 531.426 1.83844 530.863 1.83844C530.599 1.83844 527.684 4.65144 524.386 8.08844ZM123.316 3.54444C122.078 3.78244 121.066 4.18643 121.066 4.44243C121.066 5.02043 135.222 19.8744 140.354 24.6814L144.142 28.2304L132.996 39.4084C126.866 45.5564 122.236 50.8064 122.708 51.0744C123.18 51.3424 124.881 51.8774 126.488 52.2624C129.202 52.9134 130.217 52.1584 140.738 41.6674C146.968 35.4544 152.066 29.7584 152.066 29.0104C152.066 26.7504 128.835 2.76444 126.85 2.97444C126.144 3.04944 124.554 3.30544 123.316 3.54444ZM295.316 9.97044C291.328 13.8744 288.066 17.3144 288.066 17.6144C288.066 17.9144 290.574 21.4924 293.638 25.5644L299.211 32.9674L293.754 40.1534C290.753 44.1054 287.328 48.3514 286.143 49.5884L283.988 51.8384H288.801C293.515 51.8384 293.705 51.7164 298.09 45.8594C300.552 42.5714 303.05 39.8714 303.643 39.8594C304.235 39.8484 306.675 42.5384 309.066 45.8384C313.382 51.7964 313.448 51.8384 318.426 51.8384H323.44L320.875 49.0884C319.465 47.5754 316.039 43.2104 313.262 39.3874L308.214 32.4354L312.973 26.3874C315.59 23.0604 318.087 19.7294 318.521 18.9854C319.064 18.0564 317.01 15.3164 311.964 10.2354C307.922 6.16744 304.155 2.84644 303.591 2.85544C303.027 2.86444 299.304 6.06644 295.316 9.97044ZM338.066 3.56444C338.066 3.95544 340.373 6.61144 343.192 9.46544L348.318 14.6564L344.48 19.2474C342.369 21.7724 340.396 23.8384 340.095 23.8384C339.794 23.8384 338.987 24.7354 338.302 25.8324C337.188 27.6164 337.689 28.4844 343.049 34.0654L349.042 40.3054L343.335 46.0714L337.629 51.8384H342.129C346.302 51.8384 347.059 51.4034 352.566 45.8384L358.503 39.8384L352.667 33.9404C349.457 30.6974 346.996 27.5784 347.199 27.0104C347.401 26.4434 350 23.4344 352.975 20.3254L358.385 14.6724L352.402 8.92644C347.21 3.93844 345.869 3.15844 342.243 3.01644C339.946 2.92644 338.066 3.17344 338.066 3.56444ZM356.861 3.37744C356.565 3.67344 358.838 6.33344 361.914 9.28844L367.505 14.6614L362.574 20.0004C359.862 22.9364 357.014 25.7264 356.244 26.2004C355.168 26.8624 356.306 28.5364 361.175 33.4484L367.506 39.8364L361.567 45.8374L355.629 51.8384H360.629C365.422 51.8384 365.875 51.5884 371.597 45.7754C377.471 39.8094 377.534 39.6854 375.545 38.0254C374.433 37.0974 371.557 34.1944 369.155 31.5744L364.786 26.8114L370.426 21.2604C373.528 18.2074 376.066 15.3574 376.066 14.9264C376.066 14.4954 373.399 11.5994 370.14 8.49044C365.313 3.88644 363.583 2.83844 360.807 2.83844C358.933 2.83844 357.157 3.08044 356.861 3.37744ZM421.95 12.0004L413.51 21.1634L404.293 12.3914C398.519 6.89644 394.536 3.82844 393.629 4.17544C392.834 4.48144 391.393 5.93544 390.429 7.40744L388.675 10.0834L397.882 18.7114L407.088 27.3384L398.118 36.9404L389.147 46.5424L392.028 49.3024C395.525 52.6524 395.638 52.5894 405.586 41.6924C409.425 37.4874 412.804 33.9994 413.095 33.9424C413.386 33.8854 417.661 37.6634 422.595 42.3384C427.529 47.0134 432.016 50.8134 432.566 50.7824C433.116 50.7524 434.608 49.4084 435.881 47.7964L438.196 44.8644L429.129 36.2354L420.062 27.6074L423.169 23.9724C424.877 21.9734 428.753 17.7694 431.781 14.6304L437.287 8.92144L434.927 5.93544C433.628 4.29344 432.076 2.92444 431.478 2.89344C430.88 2.86344 426.592 6.96144 421.95 12.0004ZM453.816 3.52744C452.009 3.99944 451.351 5.83844 452.989 5.83844C453.497 5.83844 455.297 7.22344 456.989 8.91544C462.322 14.2484 460.771 22.1114 453.438 26.9224L450.956 28.5504L454.123 29.8614C456.897 31.0114 457.722 30.9404 460.789 29.2884C471.234 23.6634 471.834 9.86644 461.856 4.74344C458.14 2.83544 457.079 2.67544 453.816 3.52744ZM310.066 17.5634C310.066 18.3814 308.672 20.8104 306.969 22.9614L303.872 26.8714L300.357 22.2684L296.842 17.6644L300.095 14.3084L303.348 10.9524L306.707 13.5134C308.555 14.9234 310.066 16.7454 310.066 17.5634ZM471.066 39.3384V51.8384H475.566H480.066V39.3384V26.8384H475.566H471.066V39.3384ZM23.836 110.336L23.566 131.834L20.566 128.82C18.916 127.163 16.739 124.957 15.729 123.917C14.261 122.407 13.281 122.203 10.843 122.902C9.16599 123.383 7.53499 124.036 7.21799 124.352C6.90099 124.669 10.789 128.966 15.857 133.902C24.086 141.914 25.367 142.804 27.819 142.218C29.33 141.857 30.904 141.372 31.316 141.141C31.728 140.909 32.066 129.047 32.066 114.779V88.8384H28.086H24.105L23.836 110.336ZM312.646 96.9954C309.476 100.759 306.502 103.838 306.037 103.838C305.571 103.838 302.575 100.913 299.378 97.3394C293.706 90.9954 292.066 89.7694 292.066 91.8724C292.066 92.4404 290.687 94.3534 289.001 96.1224C287.315 97.8914 285.01 100.305 283.879 101.487C279.421 106.147 286.528 107.67 291.352 103.088L294.247 100.338L298.656 105.185L303.066 110.031V125.935V141.838H306.566H310.066L310.177 128.088C310.238 120.526 310.21 113.358 310.115 112.16C310.014 110.889 311.518 108.18 313.723 105.66C315.802 103.283 317.635 101.146 317.795 100.911C317.956 100.676 319.344 101.688 320.881 103.161C323.637 105.801 329.305 106.879 330.475 104.986C330.764 104.517 328.168 100.988 324.705 97.1434L318.409 90.1534L312.646 96.9954ZM348.789 92.9414C343.459 99.0144 345.837 106.066 357.448 118.617C364.243 125.963 364.98 127.131 363.987 128.986C363.371 130.136 361.146 131.753 359.041 132.58L355.215 134.083L356.826 137.46C358.597 141.175 360.582 141.662 364.866 139.433C373.722 134.825 375.347 123.927 368.149 117.413C367.003 116.376 366.066 114.921 366.066 114.178C366.066 113.436 369.048 109.409 372.693 105.229L379.32 97.6314L376.139 94.4844C373.144 91.5224 372.879 91.4444 371.611 93.1444C370.87 94.1374 367.698 97.6404 364.562 100.928L358.86 106.906L356.963 104.719C354.81 102.237 354.607 100.564 356.115 97.7464C356.937 96.2114 356.705 95.1404 355.047 92.8124C353.883 91.1764 352.611 89.8384 352.221 89.8384C351.831 89.8384 350.286 91.2344 348.789 92.9414ZM464.62 96.8924L457.673 103.838H462.87C468.057 103.838 468.066 103.843 468.066 107.063C468.066 109.705 466.85 111.513 461.34 117.066L454.614 123.844L463.57 132.842L472.525 141.839L481.296 133.109C486.119 128.308 490.066 124.108 490.066 123.776C490.066 123.443 487.379 120.509 484.094 117.255C478.937 112.145 478.118 110.826 478.094 107.588C478.066 103.865 478.096 103.838 482.129 103.838H486.193L479.926 96.8384C476.479 92.9884 473.188 89.8624 472.612 89.8924C472.037 89.9214 468.44 93.0714 464.62 96.8924ZM61.461 92.0204C61.225 92.3944 62.003 93.3814 63.189 94.2124C64.375 95.0424 68.433 98.7294 72.206 102.404L79.066 109.085V125.508V141.93L83.566 141.697L88.066 141.464V125.042C88.066 106.552 87.033 109.419 97.816 97.9714C100.703 94.9054 103.066 92.1344 103.066 91.8134C103.066 91.4924 101.323 91.1264 99.194 91.0014C95.597 90.7884 94.949 91.2024 90.095 96.8054C87.22 100.123 84.389 102.838 83.803 102.838C83.218 102.838 79.731 100.165 76.055 96.8984C70.212 91.7054 68.902 90.9834 65.63 91.1484C63.572 91.2534 61.696 91.6454 61.461 92.0204ZM122.066 93.2564C122.066 97.6744 123.075 98.8374 126.923 98.8544C134.873 98.8904 142.066 106.109 142.066 114.052C142.066 123.291 134.839 131.838 127.027 131.838C123.543 131.838 123.244 132.077 122.629 135.355C121.803 139.756 122.458 140.838 125.947 140.838C134.084 140.838 143.537 134.415 147.169 126.419C149.238 121.863 149.656 112.501 148.049 106.715C145.654 98.0954 135.525 90.8384 125.888 90.8384C122.512 90.8384 122.066 91.1204 122.066 93.2564ZM260.816 91.6194C258.07 91.9704 258.066 91.9834 258.051 100.154C258.042 104.655 257.705 108.85 257.301 109.477C256.897 110.103 254.991 111.067 253.066 111.618C251.141 112.17 248.826 112.925 247.922 113.296C246.533 113.866 246.178 112.991 245.638 107.654C243.928 90.7844 244.28 91.8384 240.361 91.8384C236.944 91.8384 236.859 91.9314 237.403 95.0884C237.711 96.8754 238.269 103.401 238.643 109.588C239.143 117.858 239.671 120.838 240.635 120.838C241.357 120.838 245.129 119.69 249.019 118.287C252.909 116.884 256.536 116.01 257.079 116.346C257.635 116.69 258.066 121.947 258.066 128.397V139.838H261.566H265.066V115.897C265.066 102.729 264.729 91.8014 264.316 91.6114C263.903 91.4224 262.328 91.4254 260.816 91.6194ZM187.066 104.945C187.066 115.643 186.814 117.955 185.694 117.525C182.211 116.189 169.841 112.731 169.568 113.017C169.399 113.194 168.932 119.333 168.531 126.661L167.801 139.984L171.184 139.661L174.566 139.338L175.428 129.838C175.902 124.613 176.423 120.192 176.585 120.014C176.748 119.836 179.156 120.498 181.938 121.486L186.995 123.282L187.28 131.81L187.566 140.338L191.316 140.648L195.066 140.959L195.149 128.648C195.24 115.312 195.444 112.126 196.263 111.307C196.555 111.015 200.26 111.876 204.495 113.221C209.887 114.934 212.301 115.317 212.549 114.502C212.996 113.034 215.066 95.7794 215.066 93.5204C215.066 92.2744 214.185 91.8384 211.664 91.8384H208.262L207.592 98.0884C206.724 106.182 206.217 107.838 204.608 107.838C201.783 107.838 195.547 104.27 195.434 102.588C195.369 101.625 195.26 98.8134 195.191 96.3384L195.066 91.8384H191.066H187.066V104.945ZM415.298 116.088L415.566 140.338H419.566H423.566L423.834 116.088L424.102 91.8384H419.566H415.03L415.298 116.088ZM512.298 116.088L512.566 140.338H516.566H520.566L521.066 130.394L521.566 120.45L527.184 118.786L532.802 117.122L533.47 125.23C533.838 129.689 534.412 135.069 534.745 137.184C535.323 140.847 535.497 141.002 538.386 140.424C540.055 140.09 541.639 139.598 541.906 139.331C542.597 138.641 539.939 109.835 539.187 109.853C538.845 109.861 534.966 110.986 530.566 112.353C526.166 113.72 522.229 114.838 521.816 114.838C521.403 114.838 521.066 109.663 521.066 103.338V91.8384H516.548H512.03L512.298 116.088ZM477.582 119.854L481.504 123.871L477.285 128.09L473.066 132.309L468.847 128.09L464.628 123.871L468.55 119.854C470.707 117.645 472.739 115.838 473.066 115.838C473.393 115.838 475.425 117.645 477.582 119.854ZM358.995 186.41L349.869 195.574L353.133 196.711C356.719 197.961 357.378 197.604 363.499 191.088C365.178 189.301 366.893 187.838 367.309 187.838C367.725 187.838 368.066 197.513 368.066 209.338V230.838H371.566H375.066V204.447V178.057L371.593 177.651C368.355 177.273 367.505 177.864 358.995 186.41ZM78.566 178.781C75.086 180.2 71.138 184.937 70.471 188.493C69.645 192.895 72.143 199.579 75.991 203.267C78.768 205.927 78.826 206.168 77.474 209.405C75.605 213.876 75.691 220.86 77.675 225.818C79.154 229.516 81.066 231.219 81.066 228.838C81.066 228.288 81.655 227.838 82.375 227.838C83.095 227.838 84.453 227.276 85.393 226.588C86.989 225.421 86.994 225.062 85.468 221.18C83.871 217.115 83.894 216.904 86.474 211.68C87.925 208.742 90.707 203.863 92.657 200.838C95.607 196.26 96.118 194.682 95.707 191.425C95.129 186.85 92.692 183.23 88.076 180.088C84.644 177.752 81.983 177.387 78.566 178.781ZM3.066 204.463V230.089L11.316 229.647C17.987 229.289 20.332 228.714 23.566 226.641C28.874 223.239 31.412 220.323 34.107 214.527C35.994 210.469 36.247 208.682 35.727 203.112C34.361 188.485 23.823 178.996 8.816 178.882L3.066 178.838V204.463ZM193.266 180.889C192.606 181.946 192.066 182.99 192.066 183.21C192.066 183.429 195.328 185.543 199.316 187.908C209.67 194.049 209.244 193.594 207.606 196.761C204.853 202.085 204.155 202.058 195.566 196.3C191.166 193.35 187.019 190.914 186.351 190.887C184.897 190.828 182.624 194.729 183.564 195.669C183.926 196.032 187.9 198.621 192.395 201.423L200.566 206.518L201.066 217.928L201.566 229.338L205.816 229.645L210.066 229.953V218.341V206.728L214.066 200.838C216.266 197.598 218.066 194.755 218.066 194.519C218.066 194.283 214.354 191.716 209.816 188.815C205.278 185.913 200.441 182.79 199.066 181.875C197.691 180.959 196.094 179.93 195.516 179.589C194.939 179.247 193.926 179.832 193.266 180.889ZM247.066 191.694V204.55L243.4 209.444C241.384 212.136 237.272 217.389 234.263 221.117C231.253 224.846 228.966 228.064 229.179 228.268C229.392 228.473 231.349 228.797 233.528 228.989C237.45 229.335 237.555 229.252 244.221 220.545L250.954 211.752L255.76 218.599C258.403 222.365 261.241 226.39 262.066 227.544C263.338 229.323 264.21 229.543 267.812 228.99L272.059 228.338L267.884 222.838C265.588 219.813 261.765 214.334 259.388 210.663L255.066 203.988V191.413V178.838H251.066H247.066V191.694ZM399.126 179.569C396.879 179.991 397.395 180.714 405.626 188.68L414.566 197.334L408.256 197.635L401.947 197.937L402.256 201.137C402.586 204.543 402.567 204.534 410.316 204.723L415.066 204.838V217.338V229.838H419.566H424.066V217.06V204.282L428.816 204.31C433.451 204.337 433.574 204.259 433.879 201.088C434.192 197.85 434.175 197.838 429.629 197.838C426.94 197.838 425.066 197.38 425.066 196.723C425.066 196.11 428.459 192.122 432.606 187.86L440.146 180.113L436.358 179.498C432.73 178.909 432.287 179.165 425.818 185.584L419.066 192.284L412.291 185.561C405.618 178.939 404.701 178.522 399.126 179.569ZM452.288 192.588L452.566 206.338L461.316 206.627L470.066 206.916V217.877V228.838H474.033H478L478.283 217.588L478.566 206.338L484.816 206.04L491.066 205.743V217.29V228.838H494.566H498.066V215.838V202.838H488.598H479.129L478.848 191.088L478.566 179.338L474.316 179.031L470.066 178.723V190.781V202.838H465.066H460.066V190.838V178.838H456.038H452.01L452.288 192.588ZM153.066 191.838C153.066 198.438 152.93 203.838 152.765 203.838C152.599 203.838 148.661 202.722 144.015 201.359C139.368 199.996 135.088 198.871 134.503 198.859C133.35 198.836 130.613 226.296 131.607 227.905C131.925 228.418 133.732 228.838 135.625 228.838C138.232 228.838 139.068 228.414 139.074 227.088C139.1 221.501 141.305 207.308 142.236 206.733C142.841 206.359 144.85 206.686 146.701 207.459C148.552 208.232 150.066 208.579 150.066 208.229C150.066 207.879 150.741 208.153 151.566 208.838C152.704 209.783 153.066 212.345 153.066 219.46V228.838H157.566H162.066V204.338V179.838H157.566H153.066V191.838ZM285.139 182.473C283.017 185.17 282.481 187.411 283.816 188.005C284.944 188.506 298.066 203.532 298.066 204.323C298.066 204.7 294.916 208.85 291.066 213.546C287.216 218.242 284.066 222.625 284.066 223.287C284.066 225.171 288.972 229.346 289.928 228.275C290.388 227.76 293.845 223.569 297.609 218.962L304.454 210.586L306.755 213.462C309.576 216.988 309.623 218.024 307.066 220.338C305.966 221.333 305.066 222.675 305.066 223.319C305.066 224.452 309.159 228.838 310.217 228.838C310.504 228.838 315.579 223.433 321.494 216.826L332.25 204.814L326.237 198.076C322.93 194.37 317.686 188.863 314.583 185.838L308.941 180.338L306.51 183.137L304.078 185.935L306.221 188.834C308.259 191.59 308.282 191.859 306.692 194.286C305.772 195.689 304.652 196.838 304.203 196.838C303.754 196.838 300.052 193.045 295.976 188.409C291.901 183.773 288.261 179.948 287.889 179.909C287.516 179.87 286.278 181.024 285.139 182.473ZM533.066 187.65V195.578L525.566 191.647L518.066 187.717V191.73C518.066 195.723 518.103 195.761 525.566 199.501L533.066 203.26V215.549V227.838H537.584H542.102L541.834 204.088L541.566 180.338L537.316 180.031L533.066 179.723V187.65ZM86.847 189.059C87.945 191.356 87.903 192.252 86.581 194.809C84.816 198.223 83.5 198.531 80.289 196.281C77.615 194.409 77.363 190.272 79.761 187.623C82.05 185.093 85.264 185.745 86.847 189.059ZM21.244 190.511C25.642 192.383 29.066 199.182 29.066 206.041C29.066 213.902 22.367 220.838 14.774 220.838H11.383L11.391 204.295L11.398 187.752L14.482 188.349C16.178 188.677 19.221 189.65 21.244 190.511ZM318.464 202.169L320.484 204.875L317.982 207.377L315.48 209.879L312.592 206.865L309.705 203.851L312.078 201.326C314.842 198.383 315.724 198.499 318.464 202.169ZM179.065 289.588L179.064 315.338L183.315 315.22L187.566 315.101V308.556V302.01L192.983 300.924C201.393 299.238 201.066 298.998 201.066 306.838V313.838H205.566H210.066V302.937V292.036L201.316 293.92C196.504 294.956 191.554 296.045 190.316 296.34C188.083 296.872 188.066 296.79 188.066 285.495V274.114L193.733 272.976C196.85 272.35 199.887 271.837 200.483 271.836C201.161 271.835 201.566 274.546 201.566 279.086V286.338L205.816 286.645L210.066 286.953V276.282V265.611L205.476 266.299C202.951 266.678 199.913 267.186 198.726 267.428C197.538 267.67 194.653 268.072 192.316 268.321C188.341 268.745 188.066 268.614 188.066 266.306C188.066 264.048 187.684 263.838 183.566 263.838H179.066L179.065 289.588ZM289.278 265.193C290.183 266.098 292.059 266.838 293.448 266.838C299.672 266.838 308.493 273.194 310.207 278.913C310.856 281.079 311.079 283.158 310.704 283.533C310.329 283.908 307.995 283.23 305.517 282.027C299.823 279.26 288.466 278.831 289.459 281.42C289.793 282.29 290.066 283.19 290.066 283.42C290.066 283.65 291.771 283.838 293.854 283.838C297.798 283.838 306.211 287.498 306.812 289.476C307.314 291.128 299.046 294.838 294.865 294.838C292.162 294.838 290.899 295.444 289.658 297.338L288.02 299.838H292.539C295.024 299.838 299.801 298.889 303.153 297.729C311.085 294.984 312.512 296.048 309.221 302.252C306.615 307.164 299.342 311.838 294.303 311.838C292.657 311.838 290.694 312.581 289.94 313.49C288.68 315.008 289.139 315.095 295.567 314.562C299.417 314.244 303.651 313.737 304.977 313.437C309.445 312.425 314.615 308.164 316.532 303.912C318.207 300.198 318.283 299.061 317.22 293.539C316.521 289.914 316.36 286.148 316.832 284.473C319.788 273.966 310.366 265.117 295.099 264.063C288.169 263.584 287.75 263.665 289.278 265.193ZM339.299 265.124L337.032 266.159L337.299 290.644L337.566 315.128L341.317 315.233L345.067 315.338V294.608L345.066 273.878L352.562 281.608L360.058 289.338L366.312 282.558C369.752 278.83 372.903 275.792 373.316 275.808C373.729 275.825 374.066 284.613 374.066 295.338V314.838H378.066H382.066V290.445C382.066 269.124 381.867 265.976 380.484 265.445C376.564 263.94 374.374 265.073 366.968 272.435L359.327 280.032L355.946 276.545C354.087 274.627 350.905 271.188 348.876 268.902C344.848 264.366 342.763 263.543 339.299 265.124ZM16.066 268.838C16.066 271.038 15.747 272.838 15.358 272.838C14.969 272.838 13.046 271.271 11.085 269.356C7.713 266.064 7.314 265.931 3.759 266.912L0 267.95L8.033 276.048L16.066 284.146V299.742V315.338H20.066H24.066V298.765V282.193L32.444 274.015C39.373 267.252 40.424 265.838 38.526 265.838C37.263 265.838 35.556 265.58 34.733 265.264C33.844 264.923 31.63 266.141 29.28 268.264C27.104 270.23 25.041 271.838 24.695 271.838C24.349 271.838 24.066 270.263 24.066 268.338C24.066 264.921 23.971 264.838 20.066 264.838H16.066V268.838ZM135.839 282.338L135.566 299.338L130.216 299.838L124.866 300.338L131.869 307.088C135.72 310.8 139.266 313.838 139.748 313.838C140.793 313.838 153.066 301.603 153.066 300.561C153.066 300.163 151.041 299.838 148.566 299.838H144.066V282.588V265.338H140.089H136.111L135.839 282.338ZM239.066 265.663C239.066 266.058 241.078 268.573 243.537 271.252L248.009 276.122L245.137 279.73C243.557 281.714 241.087 284.437 239.646 285.78L237.027 288.223L240.82 292.28C242.905 294.512 245.627 297.505 246.867 298.932L249.122 301.526L243.344 307.177L237.566 312.828L242.376 312.833C246.797 312.838 247.625 312.422 252.626 307.693C255.618 304.863 258.066 301.999 258.066 301.327C258.066 300.656 255.591 297.531 252.566 294.382L247.066 288.658L252.066 283.049C254.816 279.963 257.049 276.966 257.028 276.388C257.006 275.811 255.094 273.239 252.778 270.674C249.159 266.666 247.898 265.935 243.816 265.477C241.203 265.184 239.066 265.268 239.066 265.663ZM89.066 273.195C63.59 286.86 61.12 288.291 61.842 288.967C62.913 289.968 101.681 312.753 103.505 313.453C104.893 313.986 105.066 311.381 105.066 289.945C105.066 271.295 104.783 265.851 103.816 265.896C103.129 265.928 96.491 269.213 89.066 273.195ZM399.677 271.662C395.724 277.924 394.819 282.828 396.022 291.475C397.59 302.747 402.182 307.972 412.286 309.981C416.699 310.858 418.546 310.722 423.541 309.151C432.942 306.193 438.077 298.114 438.038 286.338C438.011 278.003 431.515 266.391 428.349 269.018C425.167 271.659 424.976 273.616 427.533 277.385C431.08 282.612 431.656 287.004 429.525 292.584C423.892 307.335 407.799 307.048 403.459 292.118C401.742 286.213 402.202 282.176 405.18 277.002L407.1 273.667L404.618 270.717L402.136 267.767L399.677 271.662ZM95.701 298.537C95.152 299.085 79.056 289.798 79.091 288.953C79.105 288.615 82.818 286.313 87.341 283.838L95.566 279.338L95.854 288.717C96.012 293.875 95.943 298.294 95.701 298.537ZM407.428 283.338C406.55 285.625 407.779 287.838 409.928 287.838C410.986 287.838 412.111 287.163 412.428 286.338C413.305 284.051 412.076 281.838 409.928 281.838C408.869 281.838 407.744 282.513 407.428 283.338ZM421.733 282.505C421.366 282.871 421.066 284.221 421.066 285.505C421.066 287.327 421.614 287.838 423.566 287.838C426.085 287.838 426.649 286.521 425.459 283.42C424.835 281.794 422.915 281.323 421.733 282.505ZM414.733 292.505C413.748 293.489 413.923 297.631 414.976 298.282C416.311 299.107 418.822 297.917 419.506 296.134C420.542 293.433 416.715 290.523 414.733 292.505Z" fill="black"/>
</svg>
