<svg width="196" height="196" viewBox="0 0 196 196" fill="none" xmlns="http://www.w3.org/2000/svg">
<path d="M98 0L103.802 39.093L117.119 1.88304L115.183 41.3568L135.503 7.45981L125.903 45.7973L152.446 16.516L135.551 52.244L167.296 28.7035L143.756 60.449L179.484 43.5541L150.203 70.0971L188.54 60.497L154.643 80.8175L194.117 78.8811L156.907 92.1982L196 98L156.907 103.802L194.117 117.119L154.643 115.183L188.54 135.503L150.203 125.903L179.484 152.446L143.756 135.551L167.296 167.296L135.551 143.756L152.446 179.484L125.903 150.203L135.503 188.54L115.183 154.643L117.119 194.117L103.802 156.907L98 196L92.1982 156.907L78.8811 194.117L80.8175 154.643L60.497 188.54L70.0971 150.203L43.5541 179.484L60.449 143.756L28.7035 167.296L52.244 135.551L16.516 152.446L45.7973 125.903L7.45981 135.503L41.3568 115.183L1.88304 117.119L39.093 103.802L0 98L39.093 92.1982L1.88304 78.8811L41.3568 80.8175L7.45981 60.497L45.7973 70.0971L16.516 43.5541L52.244 60.449L28.7035 28.7035L60.449 52.244L43.5541 16.516L70.0971 45.7973L60.497 7.45981L80.8175 41.3568L78.8811 1.88304L92.1982 39.093L98 0Z" fill="#101010"/>
<rect x="70.7725" y="96.2773" width="49.9641" height="3.44403" fill="#F9F9F9" stroke="#F9F9F9"/>
<rect y="-0.706503" width="25.4612" height="3.44612" transform="matrix(0.707711 0.706503 -0.707711 0.706503 104.688 80.5104)" fill="#F9F9F9" stroke="#F9F9F9"/>
<rect y="-0.706503" width="25.4612" height="3.44612" transform="matrix(-0.707711 0.706503 0.707711 0.706503 121.269 96.0636)" fill="#F9F9F9" stroke="#F9F9F9"/>
</svg>
