<svg width="38" height="44" viewBox="0 0 38 44" fill="none" xmlns="http://www.w3.org/2000/svg">
<path d="M10.7155 8.49797L10.7156 8.49786L6.90597 4.68823L10.7155 8.49797ZM10.7155 8.49797L10.7219 8.50399M10.7155 8.49797L10.7219 8.50399M10.7219 8.50399C10.8578 8.63058 10.9668 8.78324 11.0423 8.95285C11.1179 9.12247 11.1586 9.30557 11.1618 9.49123C11.1651 9.6769 11.131 9.86131 11.0614 10.0335C10.9919 10.2057 10.8884 10.3621 10.757 10.4934C10.6257 10.6247 10.4693 10.7282 10.2972 10.7977C10.125 10.8673 9.94057 10.9014 9.7549 10.8982C9.56924 10.8949 9.38614 10.8542 9.21653 10.7787C9.04691 10.7031 8.89425 10.5941 8.76766 10.4583L8.76778 10.4582M10.7219 8.50399L8.76778 10.4582M8.76778 10.4582L8.76154 10.4519M8.76778 10.4582L8.76154 10.4519M8.76154 10.4519L4.9519 6.64229L8.76154 10.4519ZM21.6005 10.4518L21.6006 10.4519L25.4102 6.64229C25.6692 6.38303 25.8146 6.03158 25.8146 5.66515C25.8146 5.29872 25.6692 4.94728 25.4102 4.68801C25.151 4.4292 24.7996 4.28384 24.4333 4.28384C24.0669 4.28384 23.7155 4.42924 23.4563 4.68812L21.6005 10.4518ZM21.6005 10.4518L21.5945 10.4583C21.4679 10.5941 21.3152 10.7031 21.1456 10.7787C20.976 10.8542 20.7929 10.8949 20.6072 10.8982C20.4216 10.9014 20.2371 10.8673 20.065 10.7977C19.8928 10.7282 19.7364 10.6247 19.6051 10.4934C19.4738 10.3621 19.3703 10.2057 19.3007 10.0335C19.2312 9.86131 19.197 9.6769 19.2003 9.49123C19.2036 9.30557 19.2442 9.12247 19.3198 8.95285C19.3954 8.78324 19.5043 8.63058 19.6402 8.50399L19.6403 8.5041L19.6465 8.49786L23.4562 4.68823L21.6005 10.4518ZM18.195 14.5927L18.1248 14.5324C16.4258 13.0738 13.7983 14.2818 13.7983 16.5218V41.0653C13.7983 43.4703 16.7698 44.6068 18.3734 42.8144C18.3734 42.8144 18.3734 42.8144 18.3734 42.8144L24.0641 36.4511L24.0643 36.4509C24.7104 35.7298 25.6186 35.304 26.5848 35.2642L26.585 35.2642L34.9447 34.9289C37.3232 34.8335 38.3534 31.8705 36.5445 30.3179L18.195 14.5927ZM18.195 14.5927H18.1973L36.5444 30.3178L18.195 14.5927ZM5.92882 4.28384C5.56245 4.28384 5.21105 4.42924 4.95179 4.68812C4.69292 4.94737 4.54751 5.29877 4.54751 5.66515C4.54751 6.03153 4.69292 6.38293 4.95179 6.64218L5.92882 4.28384ZM5.92882 4.28384C6.2952 4.28384 6.6466 4.42924 6.90586 4.68812L5.92882 4.28384ZM16.5638 40.0334V40.6877L17.0001 40.2001L22.005 34.6074L22.0051 34.6074C22.5707 33.9751 23.2576 33.4627 24.025 33.1008C24.7923 32.7389 25.6245 32.5348 26.4722 32.5005C26.4723 32.5005 26.4723 32.5004 26.4724 32.5004L33.8305 32.2066L34.4665 32.1812L33.9832 31.7669L16.9765 17.1898L16.5638 16.836V17.3796V40.0334ZM15.1811 0.472656C15.5478 0.472656 15.8995 0.618338 16.1588 0.877654C16.4181 1.13697 16.5638 1.48868 16.5638 1.8554V7.2979C16.5638 7.66463 16.4181 8.01633 16.1588 8.27565C15.8995 8.53497 15.5478 8.68065 15.1811 8.68065C14.8143 8.68065 14.4626 8.53497 14.2033 8.27565C13.944 8.01633 13.7983 7.66463 13.7983 7.2979V1.8554C13.7983 1.48868 13.944 1.13697 14.2033 0.877654C14.4626 0.618338 14.8143 0.472656 15.1811 0.472656ZM0.736328 14.9174C0.736328 14.5507 0.88201 14.199 1.14133 13.9396C1.40064 13.6803 1.75235 13.5346 2.11908 13.5346H7.56157C7.9283 13.5346 8.28001 13.6803 8.53932 13.9396C8.79864 14.199 8.94432 14.5507 8.94432 14.9174C8.94432 15.2841 8.79864 15.6358 8.53932 15.8951C8.28001 16.1545 7.9283 16.3001 7.56157 16.3001H2.11908C1.75235 16.3001 1.40064 16.1545 1.14133 15.8951C0.88201 15.6358 0.736328 15.2841 0.736328 14.9174Z" fill="#101010" stroke="#DE2928" stroke-width="0.5"/>
</svg>
