<svg width="94" height="43" viewBox="0 0 94 43" fill="none" xmlns="http://www.w3.org/2000/svg">
<path d="M0.106445 26.4215C0.106445 30.6367 3.34035 33.4922 7.69714 33.4922C12.4582 33.4922 14.4345 30.0928 14.4345 30.0928H14.5243V30.5007C14.5243 31.5432 15.3328 32.9483 17.5785 32.9483H24.3158V26.3761H22.6091C21.9802 26.3761 21.6209 26.0135 21.6209 25.379V18.5803C21.6209 13.0506 18.9709 9.06201 10.6166 9.06201C8.23613 9.06201 1.67848 9.37928 1.67848 14.5463V17.1299H8.86494V16.0874C8.86494 15.1809 9.898 14.9543 10.8861 14.9543C12.8175 14.9543 13.8506 15.7701 13.8506 17.991V18.399H13.5361C9.98783 18.399 0.106445 19.0335 0.106445 26.4215ZM7.78698 25.6056C7.78698 23.6566 10.6166 22.8861 13.087 22.8861H13.9404V23.5207C13.9404 25.4243 12.1887 27.6452 9.98783 27.6452C8.55054 27.6452 7.78698 26.6481 7.78698 25.6056Z" fill="#181818"/>
<path d="M69.6847 26.4215C69.6847 30.6367 72.9186 33.4922 77.2754 33.4922C82.0365 33.4922 84.0127 30.0928 84.0127 30.0928H84.1026V30.5007C84.1026 31.5432 84.911 32.9483 87.1568 32.9483H93.8941V26.3761H92.1873C91.5585 26.3761 91.1992 26.0135 91.1992 25.379V18.5803C91.1992 13.0506 88.5492 9.06201 80.1949 9.06201C77.8144 9.06201 71.2568 9.37928 71.2568 14.5463V17.1299H78.4432V16.0874C78.4432 15.1809 79.4763 14.9543 80.4644 14.9543C82.3958 14.9543 83.4288 15.7701 83.4288 17.991V18.399H83.1144C79.5661 18.399 69.6847 19.0335 69.6847 26.4215ZM77.3653 25.6056C77.3653 23.6566 80.1949 22.8861 82.6653 22.8861H83.5187V23.5207C83.5187 25.4243 81.767 27.6452 79.5661 27.6452C78.1288 27.6452 77.3653 26.6481 77.3653 25.6056Z" fill="#181818"/>
<path fill-rule="evenodd" clip-rule="evenodd" d="M27.026 29.6396C27.026 31.9511 28.0142 32.9483 30.3048 32.9483H30.6007C32.4801 32.9483 34.387 33.1087 35.9837 34.1C37.489 35.0347 39.2111 36.3827 40.7767 37.6082C42.3408 38.8326 43.7487 39.9346 44.6284 40.3803C46.8742 41.5587 50.2878 42.4652 53.3869 42.4652C59.72 42.4652 66.4573 39.3378 66.4573 30.8167V17.0379C66.4573 16.494 66.8615 16.1767 67.4454 16.1767H69.0624V9.60461H62.0556C60.3039 9.60461 59.5852 10.8284 59.5852 11.4629V11.7802H59.4954C59.4954 11.7802 57.5191 9.06071 52.803 9.06071C45.7962 9.06071 42.4276 14.5904 42.4276 20.5279C42.4276 26.5108 45.886 32.2671 52.8479 32.2671C52.8479 32.2671 57.2946 31.5419 58.642 30.0462H58.7318C58.7318 30.0462 58.6869 30.6354 58.6869 30.9073V31.2699C58.6869 34.7146 56.1267 35.7571 53.342 35.7571C49.7038 35.7571 46.8742 34.2614 46.8742 34.2614C45.134 33.3762 43.2901 31.7675 41.5306 30.2324C39.3258 28.3087 37.2533 26.5006 35.683 26.3762C34.8747 26.3121 34.7964 26.2222 34.7964 25.379V3.84967C34.7964 1.5381 33.8082 0.540949 31.5176 0.540949L21.666 0.533203V7.10532L26.0379 7.11307C26.6667 7.11307 27.026 7.47567 27.026 8.11022V29.6396ZM54.6914 25.8362C51.6186 25.8362 50.2826 23.2407 50.2826 20.3264C50.2381 18.763 50.9951 15.6362 54.3797 15.6362C56.6954 15.6362 58.833 16.5469 58.833 20.6907C58.833 24.7889 56.6954 25.8362 54.6914 25.8362Z" fill="#181818"/>
</svg>
